<?xml version="1.0" encoding="utf-8"?>
<!-- Generator: Adobe Illustrator 23.0.3, SVG Export Plug-In . SVG Version: 6.00 Build 0)  -->
<svg version="1.1" id="Layer_1" xmlns="http://www.w3.org/2000/svg" xmlns:xlink="http://www.w3.org/1999/xlink" x="0px" y="0px"
	 viewBox="0 0 90 90" style="enable-background:new 0 0 90 90;" xml:space="preserve">
<style type="text/css">
	.st0{fill:#FFFFFF;}
</style>
<g>
	<path class="st0" d="M44.12,55.69c-3.72,0-6.75-3.03-6.75-6.75c0-3.72,3.03-6.75,6.75-6.75s6.75,3.03,6.75,6.75
		C50.87,52.66,47.84,55.69,44.12,55.69z M44.12,44.19c-2.62,0-4.75,2.13-4.75,4.75s2.13,4.75,4.75,4.75c2.62,0,4.75-2.13,4.75-4.75
		S46.74,44.19,44.12,44.19z"/>
	<path class="st0" d="M53.11,86.75H35.14V64.73c0-4.95,4.03-8.98,8.98-8.98s8.98,4.03,8.98,8.98V86.75z M37.14,84.75h13.97V64.73
		c0-3.85-3.13-6.98-6.98-6.98c-3.85,0-6.98,3.13-6.98,6.98V84.75z"/>
	<path class="st0" d="M58.41,61.75c-3.72,0-6.75-3.03-6.75-6.75s3.03-6.75,6.75-6.75s6.75,3.03,6.75,6.75S62.13,61.75,58.41,61.75z
		 M58.41,50.25c-2.62,0-4.75,2.13-4.75,4.75s2.13,4.75,4.75,4.75s4.75-2.13,4.75-4.75S61.02,50.25,58.41,50.25z"/>
	<path class="st0" d="M67.39,86.62h-13.1v-2h11.1V69.29c0-3.03-2.46-5.49-5.49-5.49h-5.3v-2h5.3c4.13,0,7.49,3.36,7.49,7.49V86.62z"
		/>
	<path class="st0" d="M29.71,61.75c-3.72,0-6.75-3.03-6.75-6.75s3.03-6.75,6.75-6.75s6.75,3.03,6.75,6.75S33.44,61.75,29.71,61.75z
		 M29.71,50.25c-2.62,0-4.75,2.13-4.75,4.75s2.13,4.75,4.75,4.75s4.75-2.13,4.75-4.75S32.33,50.25,29.71,50.25z"/>
	<path class="st0" d="M33.83,86.62h-13.1V69.29c0-4.13,3.36-7.49,7.49-7.49h5.3v2h-5.3c-3.03,0-5.49,2.46-5.49,5.49v15.33h11.1
		V86.62z"/>
</g>
<g>
	<path class="st0" d="M73.11,86.57h-3.9v-2h3.9c2.14,0,3.89-1.68,3.89-3.75V7.93c0-2.07-1.74-3.75-3.89-3.75H16.54
		c-2.14,0-3.89,1.68-3.89,3.75v72.89c0,2.07,1.74,3.75,3.89,3.75h1.95v2h-1.95c-3.25,0-5.89-2.58-5.89-5.75V7.93
		c0-3.17,2.64-5.75,5.89-5.75h56.58c3.25,0,5.89,2.58,5.89,5.75v72.89C79,83.99,76.36,86.57,73.11,86.57z"/>
	<path class="st0" d="M24.89,20.9h-9.4V10.37h9.4V20.9z M17.49,18.9h5.4v-6.53h-5.4V18.9z"/>
	<path class="st0" d="M72.66,20.9h-9.4V10.37h9.4V20.9z M65.26,18.9h5.4v-6.53h-5.4V18.9z"/>
	<path class="st0" d="M59.13,20.9H28.99V10.37h30.13V20.9z M30.99,18.9h26.13v-6.53H30.99V18.9z"/>
	<path class="st0" d="M24.89,35.36h-9.4V24.83h9.4V35.36z M17.49,33.36h5.4v-6.53h-5.4V33.36z"/>
	<path class="st0" d="M72.66,35.36h-9.4V24.83h9.4V35.36z M65.26,33.36h5.4v-6.53h-5.4V33.36z"/>
	<path class="st0" d="M41.41,35.36h-9.4V24.83h9.4V35.36z M34.01,33.36h5.4v-6.53h-5.4V33.36z"/>
	<path class="st0" d="M24.89,48.04h-9.4V37.51h9.4V48.04z M17.49,46.04h5.4v-6.53h-5.4V46.04z"/>
	<path class="st0" d="M72.66,48.04h-9.4V37.51h9.4V48.04z M65.26,46.04h5.4v-6.53h-5.4V46.04z"/>
	<path class="st0" d="M57.32,35.36h-9.4V24.83h9.4V35.36z M49.92,33.36h5.4v-6.53h-5.4V33.36z"/>
</g>
</svg>
