<?xml version="1.0" encoding="utf-8"?>
<!-- Generator: Adobe Illustrator 23.0.3, SVG Export Plug-In . SVG Version: 6.00 Build 0)  -->
<svg version="1.1" id="Layer_1" xmlns="http://www.w3.org/2000/svg" xmlns:xlink="http://www.w3.org/1999/xlink" x="0px" y="0px"
	 viewBox="0 0 118 79" style="enable-background:new 0 0 118 79;" xml:space="preserve">
<style type="text/css">
	.st0{fill:#636363;}
</style>
<path class="st0" d="M14.75,69.46v-5.3c2.5-0.35,9.18-2.13,14.74-11.1c2.61-4.21,3.6-9.1,4.48-13.41
	c1.58-7.76,2.78-12.16,9.07-12.16c4.51,0,5.6,4.49,6.85,11.88c1.24,7.33,2.65,15.64,11.11,15.97c0.16,0.01,0.31,0.01,0.47,0.01
	c8.24,0,12.22-8.63,15.73-16.26c2.8-6.08,5.44-11.8,9.55-11.6c4,0.22,4.73,3.32,5.47,8.4c0.66,4.54,1.48,10.24,8.07,9.97l-0.07-2
	c-4.58,0.14-5.27-3.04-6.03-8.26c-0.66-4.59-1.42-9.79-7.34-10.11c-5.47-0.3-8.38,6.04-11.48,12.76
	c-3.48,7.56-7.09,15.38-14.31,15.09c-6.84-0.27-7.99-7.09-9.22-14.31c-1.13-6.66-2.3-13.54-8.82-13.54
	c-8.23,0-9.59,6.68-11.03,13.76c-0.84,4.15-1.8,8.85-4.22,12.75c-4.97,8.01-10.75,9.76-13.05,10.14V7.42h-2v64.04h91.15v-2H14.75z"
	/>
</svg>
