<?xml version="1.0" encoding="utf-8"?>
<!-- Generator: Adobe Illustrator 23.0.3, SVG Export Plug-In . SVG Version: 6.00 Build 0)  -->
<svg version="1.1" id="Layer_1" xmlns="http://www.w3.org/2000/svg" xmlns:xlink="http://www.w3.org/1999/xlink" x="0px" y="0px"
	 viewBox="0 0 90 90" style="enable-background:new 0 0 90 90;" xml:space="preserve">
<style type="text/css">
	.st0{fill:#636363;}
</style>
<g>
	<path class="st0" d="M64.08,31.27L73,22.34c-6.47-7.25-15.88-11.82-26.36-11.82c-0.16,0-0.31,0.01-0.47,0.01v11.8
		C53.52,22.61,59.79,26.06,64.08,31.27z"/>
	<path class="st0" d="M65.81,33.63c2.55,3.93,4.09,8.61,4.31,13.57c0.27,5.97-2.05,11.55-5.85,15.91l8.15,8.23
		c6.23-6.37,9.53-15.9,9.53-25.52c0-7.97-2.64-15.32-7.1-21.23C71.84,27.6,68.82,30.61,65.81,33.63z"/>
	<path class="st0" d="M20.34,47.2c-0.57-12.76,10.64-23.72,22.92-24.8V10.55C24.4,11.28,9.34,26.79,9.34,45.82
		c0,8.92,3.32,17.06,8.77,23.28l7.33-7.18C22.42,57.77,20.58,52.65,20.34,47.2z"/>
	<path class="st0" d="M62.27,65.17c-4.62,4.26-10.76,6.93-17.04,6.93c-7.2,0-13.43-3.04-17.87-7.84l-7.64,7.53
		c6.45,6.97,15.67,11.34,25.92,11.34c9.55,0,18.22-3.8,24.57-9.97C67.55,70.49,64.91,67.83,62.27,65.17z"/>
</g>
</svg>
