<?xml version="1.0" encoding="utf-8"?>
<!-- Generator: Adobe Illustrator 23.0.3, SVG Export Plug-In . SVG Version: 6.00 Build 0)  -->
<svg version="1.1" id="Layer_1" xmlns="http://www.w3.org/2000/svg" xmlns:xlink="http://www.w3.org/1999/xlink" x="0px" y="0px"
	 viewBox="0 0 118 79" style="enable-background:new 0 0 118 79;" xml:space="preserve">
<style type="text/css">
	.st0{fill:#636363;}
</style>
<path class="st0" d="M88.61,65.46c6.23-6.37,9.53-15.9,9.53-25.52c0-19.5-15.81-35.31-35.31-35.31c-0.16,0-0.31,0.01-0.47,0.01
	v34.29L88.61,65.46z"/>
<path class="st0" d="M25.52,39.95c0,8.92,3.32,17.06,8.77,23.28l25.15-24.63c0-0.07-0.16-0.11,0,0V4.68
	C40.59,5.4,25.52,20.91,25.52,39.95"/>
<path class="st0" d="M60.83,41.52c-0.01-0.01-0.01-0.02-0.02-0.03c0.02,0.03-0.03-0.03-0.05-0.06L35.91,65.91
	c6.45,6.97,15.67,11.34,25.92,11.34c9.55,0,18.22-3.8,24.57-9.97C77.79,58.68,69.43,50.13,60.83,41.52z"/>
</svg>
