<?xml version="1.0" encoding="utf-8"?>
<!-- Generator: Adobe Illustrator 23.0.3, SVG Export Plug-In . SVG Version: 6.00 Build 0)  -->
<svg version="1.1" id="Layer_1" xmlns="http://www.w3.org/2000/svg" xmlns:xlink="http://www.w3.org/1999/xlink" x="0px" y="0px"
	 viewBox="0 0 90 90" style="enable-background:new 0 0 90 90;" xml:space="preserve">
<style type="text/css">
	.st0{fill:#FFFFFF;}
</style>
<g>
	<path class="st0" d="M68.83,31.31l-3.22-14.79c-0.12-4-4.24-6.96-7.94-6.96H33.24c-3.71,0-7.85,2.99-7.94,7l-2.4,14.5l-0.02,0.24
		c0,3.94,3.2,7.14,7.14,7.14h31.67C65.63,38.44,68.83,35.24,68.83,31.31z M61.69,35.44H30.02c-2.24,0-4.07-1.79-4.14-4.02
		l2.39-14.49l0.02-0.24c0-2.29,2.7-4.14,4.94-4.14h24.43c2.24,0,4.94,1.85,4.94,4.14l3.22,14.77
		C65.75,33.67,63.92,35.44,61.69,35.44z"/>
	<path class="st0" d="M21.23,46.6c-4.05,0-7.34,3.29-7.34,7.34c0,4.05,3.29,7.34,7.34,7.34c4.05,0,7.34-3.29,7.34-7.34
		C28.57,49.89,25.28,46.6,21.23,46.6z M21.23,58.27c-2.39,0-4.34-1.95-4.34-4.34c0-2.39,1.95-4.34,4.34-4.34s4.34,1.95,4.34,4.34
		C25.57,56.33,23.62,58.27,21.23,58.27z"/>
	<path class="st0" d="M63.82,53.94c0,4.05,3.29,7.34,7.34,7.34c4.05,0,7.34-3.29,7.34-7.34c0-4.05-3.29-7.34-7.34-7.34
		C67.11,46.6,63.82,49.89,63.82,53.94z M75.5,53.94c0,2.39-1.95,4.34-4.34,4.34c-2.39,0-4.34-1.95-4.34-4.34
		c0-2.39,1.95-4.34,4.34-4.34C73.55,49.6,75.5,51.54,75.5,53.94z"/>
	<rect x="35.79" y="48.63" class="st0" width="22.01" height="3"/>
	<rect x="35.79" y="56.68" class="st0" width="22.01" height="3"/>
	<path class="st0" d="M84.51,33.89c2.75,0,4.99-2.24,4.99-4.99c0-2.75-2.24-4.99-4.99-4.99h-7.25c-1.25,0-2.38,0.48-3.26,1.24
		c-1.89-6.52-4.3-14.39-4.42-14.77c-0.54-2.31-3.23-6.66-9.53-6.66c-0.02,0-0.03,0-0.05,0c-3.04,0.01-8.49,0.02-14.26,0.01h-0.8
		c-5.77,0-11.21,0-14.26-0.01c-0.02,0-0.03,0-0.05,0c-6.29,0-8.98,4.35-9.5,6.56c-0.14,0.45-2.53,8.24-4.41,14.73
		c-0.85-0.68-1.92-1.1-3.09-1.1H6.4c-2.75,0-4.99,2.24-4.99,4.99c0,2.75,2.24,4.99,4.99,4.99h7.25c0.13,0,0.26-0.03,0.39-0.04
		c-1.24,2.25-2.87,2.35-2.94,2.35c-2.4,0-4.26,0.66-5.53,1.96C3.99,39.8,3.99,41.79,4,41.97v19.76c0,3.31,0.95,5.75,2.81,7.24
		c1.53,1.22,3.33,1.49,4.6,1.49c0.67,0,1.19-0.07,1.45-0.12c0.38,0,1.57-0.01,3.38-0.03v9.77c0,2.62,2.13,4.75,4.75,4.75h5.18
		c2.62,0,4.75-2.13,4.75-4.75v-9.87c0,0,0-0.01,0-0.01c4.44-0.03,9.38-0.07,14.43-0.11c6.7,0.05,13.19,0.1,18.59,0.14v9.58
		c0,2.62,2.13,4.75,4.75,4.75h5.18c2.62,0,4.75-2.13,4.75-4.75v-7.87c0-0.54-0.11-1.05-0.28-1.53c1.04,0.12,3.03,0.11,4.75-1.23
		c1.87-1.45,2.82-3.96,2.82-7.46V42.09c0.09-0.6,0.22-2.35-0.99-3.86c-1.09-1.35-2.87-2.03-5.29-2.03
		c-0.13-0.01-1.74-0.14-2.96-2.37c0.2,0.02,0.4,0.06,0.61,0.06H84.51z M27.92,80.08c0,0.96-0.79,1.75-1.75,1.75h-5.18
		c-0.96,0-1.75-0.79-1.75-1.75v-9.62h8.68V80.08z M77.26,26.91h7.25c1.1,0,1.99,0.89,1.99,1.99c0,1.1-0.89,1.99-1.99,1.99h-7.25
		c-1.1,0-1.99-0.89-1.99-1.99C75.27,27.81,76.17,26.91,77.26,26.91z M6.4,30.89c-1.1,0-1.99-0.89-1.99-1.99
		c0-1.1,0.89-1.99,1.99-1.99h7.25c1.09,0,1.98,0.89,1.99,1.98c-0.1,0.35-0.19,0.68-0.28,1c-0.35,0.59-0.98,1-1.71,1H6.4z
		 M75.61,79.8c0,0.96-0.79,1.75-1.75,1.75h-5.18c-0.96,0-1.75-0.79-1.75-1.75v-9.55c3.07,0.02,5.66,0.04,7.56,0.06
		c0.65,0.25,1.12,0.89,1.12,1.63V79.8z M79.61,39.2c1.45,0,2.47,0.31,2.96,0.9c0.53,0.64,0.37,1.55,0.37,1.55l-0.03,20.08
		c0,2.47-0.57,4.22-1.64,5.07c-1.23,0.97-2.9,0.59-2.9,0.59l-0.36-0.05c0,0-1.13-0.01-3.1-0.02c-0.34-0.08-0.69-0.13-1.05-0.13
		h-7.18c-0.19,0-0.38,0.02-0.55,0.06c-5.8-0.05-13.16-0.1-20.79-0.16c-16.97,0.13-32.64,0.25-32.64,0.25l-0.32,0.04
		c-0.02,0-2.19,0.45-3.7-0.75C7.56,65.73,7,64.08,7,61.73V41.95c0-0.46,0.21-2.75,4.09-2.75c0.23-0.01,4.99-0.04,6.74-6.88
		c0.1-0.41,0.23-0.87,0.36-1.36c0.2-0.44,0.33-0.92,0.39-1.43c1.89-6.78,5.41-18.25,5.47-18.46c0.04-0.18,1.09-4.35,6.6-4.35
		c0.01,0,0.03,0,0.04,0c3.05,0.01,8.49,0.02,14.27,0.01h0.8c5.77,0,11.22,0,14.27-0.01c0.01,0,0.03,0,0.04,0
		c5.44,0,6.56,4.18,6.63,4.44c0.05,0.15,4.74,15.47,6.19,21.16C74.6,39.05,79.25,39.2,79.61,39.2z"/>
</g>
</svg>
