<?xml version="1.0" encoding="utf-8"?>
<!-- Generator: Adobe Illustrator 23.0.3, SVG Export Plug-In . SVG Version: 6.00 Build 0)  -->
<svg version="1.1" id="Layer_1" xmlns="http://www.w3.org/2000/svg" xmlns:xlink="http://www.w3.org/1999/xlink" x="0px" y="0px"
	 viewBox="0 0 90 90" style="enable-background:new 0 0 90 90;" xml:space="preserve">
<style type="text/css">
	.st0{fill:#FFFFFF;}
</style>
<path class="st0" d="M75,80.7H12.52V9.17H75V80.7z M15.52,77.71H72V12.17H15.52V77.71z"/>
<path class="st0" d="M41.59,47.62H19.09V15.1h22.51V47.62z M22.08,44.63H38.6V18.1H22.08V44.63z"/>
<path class="st0" d="M69.13,41.27H45.48V15.28h23.66V41.27z M48.47,38.27h17.66v-20H48.47V38.27z"/>
<path class="st0" d="M69.13,74.32H45.48V45.42h23.66V74.32z M48.47,71.33h17.66V48.42H48.47V71.33z"/>
<path class="st0" d="M41.59,75.03H19.09V50.89h22.51V75.03z M22.08,72.04H38.6V53.88H22.08V72.04z"/>
</svg>
