<?xml version="1.0" encoding="utf-8"?>
<!-- Generator: Adobe Illustrator 23.0.3, SVG Export Plug-In . SVG Version: 6.00 Build 0)  -->
<svg version="1.1" id="Layer_1" xmlns="http://www.w3.org/2000/svg" xmlns:xlink="http://www.w3.org/1999/xlink" x="0px" y="0px"
	 viewBox="0 0 90 90" style="enable-background:new 0 0 90 90;" xml:space="preserve">
<style type="text/css">
	.st0{fill:#636363;}
</style>
<polygon class="st0" points="87.39,74 3.26,74 3.26,14.88 5.1,14.88 5.1,72.15 87.39,72.15 "/>
<rect x="35.76" y="-8.73" transform="matrix(-1.836970e-16 1 -1 -1.836970e-16 66.3936 -12.7212)" class="st0" width="7.6" height="71.13"/>
<rect x="24.98" y="13.77" transform="matrix(-1.836970e-16 1 -1 -1.836970e-16 68.0503 10.1324)" class="st0" width="7.95" height="50.65"/>
<rect x="16.21" y="35.86" transform="matrix(-1.836970e-16 1 -1 -1.836970e-16 71.89 31.4758)" class="st0" width="8" height="31.66"/>
<rect x="22.33" y="41.92" transform="matrix(-1.836970e-16 1 -1 -1.836970e-16 90.8441 38.2878)" class="st0" width="7.89" height="45.29"/>
</svg>
