<?xml version="1.0" encoding="utf-8"?>
<!-- Generator: Adobe Illustrator 23.0.3, SVG Export Plug-In . SVG Version: 6.00 Build 0)  -->
<svg version="1.1" id="Layer_1" xmlns="http://www.w3.org/2000/svg" xmlns:xlink="http://www.w3.org/1999/xlink" x="0px" y="0px"
	 viewBox="0 0 90 90" style="enable-background:new 0 0 90 90;" xml:space="preserve">
<style type="text/css">
	.st0{fill:#5E5E5E;}
</style>
<g>
	<path class="st0" d="M35.5,42.14c-1.51,0-2.99,0-4.49,0c0-1.5,0-2.99,0-4.49c1.49,0,2.98,0,4.49,0
		C35.5,39.13,35.5,40.62,35.5,42.14z"/>
	<path class="st0" d="M40.07,37.63c1.5,0,2.98,0,4.48,0c0,1.5,0,2.99,0,4.5c-1.49,0-2.98,0-4.48,0
		C40.07,40.63,40.07,39.13,40.07,37.63z"/>
	<path class="st0" d="M49.13,37.63c1.5,0,2.99,0,4.49,0c0,1.5,0,3,0,4.5c-1.5,0-2.98,0-4.49,0C49.13,40.65,49.13,39.15,49.13,37.63z
		"/>
	<path class="st0" d="M62.69,37.64c0,1.51,0,2.99,0,4.49c-1.5,0-2.99,0-4.49,0c0-1.49,0-2.98,0-4.49
		C59.68,37.64,61.17,37.64,62.69,37.64z"/>
	<path class="st0" d="M71.74,42.14c-1.51,0-2.99,0-4.49,0c0-1.5,0-2.99,0-4.49c1.49,0,2.98,0,4.49,0
		C71.74,39.13,71.74,40.62,71.74,42.14z"/>
	<path class="st0" d="M26.44,51.2c-1.51,0-2.99,0-4.49,0c0-1.5,0-2.99,0-4.49c1.49,0,2.98,0,4.49,0
		C26.44,48.19,26.44,49.68,26.44,51.2z"/>
	<path class="st0" d="M35.5,51.2c-1.51,0-2.99,0-4.49,0c0-1.5,0-2.99,0-4.49c1.49,0,2.98,0,4.49,0C35.5,48.19,35.5,49.68,35.5,51.2z
		"/>
	<path class="st0" d="M44.57,46.7c0,1.51,0,2.99,0,4.5c-1.5,0-2.99,0-4.49,0c0-1.49,0-2.98,0-4.5C41.56,46.7,43.05,46.7,44.57,46.7z
		"/>
	<path class="st0" d="M49.12,51.19c0-1.51,0-2.99,0-4.49c1.5,0,2.99,0,4.49,0c0,1.49,0,2.98,0,4.49
		C52.13,51.19,50.64,51.19,49.12,51.19z"/>
	<path class="st0" d="M62.69,46.7c0,1.51,0,2.99,0,4.5c-1.5,0-2.99,0-4.49,0c0-1.49,0-2.98,0-4.5C59.68,46.7,61.17,46.7,62.69,46.7z
		"/>
	<path class="st0" d="M67.25,46.69c1.51,0,2.99,0,4.49,0c0,1.5,0,2.99,0,4.49c-1.49,0-2.98,0-4.49,0
		C67.25,49.7,67.25,48.21,67.25,46.69z"/>
	<path class="st0" d="M21.94,60.25c0-1.51,0-2.99,0-4.49c1.5,0,2.99,0,4.49,0c0,1.49,0,2.98,0,4.49
		C24.95,60.25,23.46,60.25,21.94,60.25z"/>
	<path class="st0" d="M35.5,55.76c0,1.5,0,2.99,0,4.49c-1.49,0-2.99,0-4.5,0c0-1.49,0-2.98,0-4.49
		C32.5,55.76,33.98,55.76,35.5,55.76z"/>
	<path class="st0" d="M44.57,55.77c0,1.5,0,2.98,0,4.48c-1.5,0-2.99,0-4.5,0c0-1.49,0-2.98,0-4.48
		C41.57,55.77,43.07,55.77,44.57,55.77z"/>
	<path class="st0" d="M49.13,55.75c1.51,0,2.99,0,4.5,0c0,1.5,0,2.99,0,4.49c-1.49,0-2.98,0-4.5,0
		C49.13,58.76,49.13,57.27,49.13,55.75z"/>
	<path class="st0" d="M58.19,55.75c1.51,0,2.99,0,4.49,0c0,1.5,0,2.99,0,4.49c-1.49,0-2.98,0-4.49,0
		C58.19,58.76,58.19,57.27,58.19,55.75z"/>
	<path class="st0" d="M71.75,55.76c0,1.51,0,2.99,0,4.5c-1.5,0-2.99,0-4.49,0c0-1.49,0-2.98,0-4.5
		C68.74,55.76,70.23,55.76,71.75,55.76z"/>
	<path class="st0" d="M21.94,69.31c0-1.51,0-2.99,0-4.5c1.5,0,2.99,0,4.49,0c0,1.49,0,2.98,0,4.5
		C24.95,69.31,23.46,69.31,21.94,69.31z"/>
	<path class="st0" d="M35.5,69.33c-1.51,0-2.99,0-4.49,0c0-1.5,0-2.99,0-4.5c1.48,0,2.98,0,4.49,0C35.5,66.31,35.5,67.81,35.5,69.33
		z"/>
	<path class="st0" d="M44.57,64.82c0,1.51,0,2.99,0,4.49c-1.5,0-2.99,0-4.49,0c0-1.49,0-2.98,0-4.49
		C41.56,64.82,43.05,64.82,44.57,64.82z"/>
	<path class="st0" d="M53.62,69.32c-1.51,0-2.99,0-4.5,0c0-1.5,0-2.99,0-4.49c1.49,0,2.98,0,4.5,0
		C53.62,66.31,53.62,67.8,53.62,69.32z"/>
	<path class="st0" d="M62.69,64.82c0,1.5,0,2.99,0,4.49c-1.5,0-3,0-4.5,0c0-1.5,0-2.98,0-4.49C59.67,64.82,61.17,64.82,62.69,64.82z
		"/>
	<rect x="34.49" y="15.54" class="st0" width="25.76" height="3.41"/>
	<path class="st0" d="M69.59,15.54h-2.36c0,0.12,0,0.24,0,0.36c0,1.02,0,2.03,0,3.05h2.36c4.97,0,9,4.04,9,9v38.73
		c0,4.97-4.04,9.01-9,9.01H21.47c-4.97,0-9-4.04-9-9.01V27.95c0-4.97,4.04-9,9-9h6v-3.41h-6c-6.84,0-12.41,5.57-12.41,12.41v38.73
		c0,6.84,5.57,12.41,12.41,12.41h48.12c6.84,0,12.41-5.57,12.41-12.41V27.95C82,21.1,76.43,15.54,69.59,15.54z"/>
	<path class="st0" d="M66.18,17.27c0,1.51,0.01,3.02,0,4.53c-0.01,0.83-0.31,1.52-1.06,1.94c-1.25,0.71-3.47,0.26-3.47-2
		c0-3.03,0-6.06,0-9.08c0-0.99,0.52-1.75,1.36-2.05c0.96-0.35,2.03-0.12,2.63,0.57c0.39,0.45,0.53,0.99,0.53,1.57
		C66.18,14.25,66.18,15.76,66.18,17.27z"/>
	<path class="st0" d="M33.27,17.27c0,1.51,0.01,3.02,0,4.53c-0.01,0.83-0.31,1.52-1.06,1.94c-1.25,0.71-3.47,0.26-3.47-2
		c0-3.03,0-6.06,0-9.08c0-0.99,0.52-1.75,1.36-2.05c0.96-0.35,2.03-0.12,2.63,0.57c0.39,0.45,0.53,0.99,0.53,1.57
		C33.27,14.25,33.27,15.76,33.27,17.27z"/>
</g>
</svg>
