<?xml version="1.0" encoding="utf-8"?>
<!-- Generator: Adobe Illustrator 23.0.3, SVG Export Plug-In . SVG Version: 6.00 Build 0)  -->
<svg version="1.1" id="Layer_1" xmlns="http://www.w3.org/2000/svg" xmlns:xlink="http://www.w3.org/1999/xlink" x="0px" y="0px"
	 viewBox="0 0 90 90" style="enable-background:new 0 0 90 90;" xml:space="preserve">
<style type="text/css">
	.st0{fill:none;stroke:#16354E;stroke-width:3;stroke-miterlimit:10;}
</style>
<path class="st0" d="M37.21,44.57H15.06c-1.65,0-3-1.35-3-3v-31.3c0-1.65,1.35-3,3-3h22.16c1.65,0,3,1.35,3,3v31.3
	C40.21,43.22,38.86,44.57,37.21,44.57z"/>
<path class="st0" d="M70.95,44.57H48.63c-1.65,0-3-1.35-3-3v-31.3c0-1.65,1.35-3,3-3h22.33c1.65,0,3,1.35,3,3v31.3
	C73.95,43.22,72.6,44.57,70.95,44.57z"/>
<path class="st0" d="M47.31,81.87H15.68c-1.65,0-3-1.35-3-3V53c0-1.65,1.35-3,3-3h31.63c1.65,0,3,1.35,3,3v25.87
	C50.31,80.52,48.96,81.87,47.31,81.87z"/>
<path class="st0" d="M70.95,81.87H58.47c-1.65,0-3-1.35-3-3V53c0-1.65,1.35-3,3-3h12.48c1.65,0,3,1.35,3,3v25.87
	C73.95,80.52,72.6,81.87,70.95,81.87z"/>
<path class="st0" d="M73.25,86.64H13.7c-3.16,0-5.75-2.59-5.75-5.75V8.52c0-3.16,2.59-5.75,5.75-5.75h59.55
	c3.16,0,5.75,2.59,5.75,5.75v72.37C79,84.05,76.41,86.64,73.25,86.64z"/>
</svg>
