<?xml version="1.0" encoding="utf-8"?>
<!-- Generator: Adobe Illustrator 23.0.3, SVG Export Plug-In . SVG Version: 6.00 Build 0)  -->
<svg version="1.1" id="Layer_1" xmlns="http://www.w3.org/2000/svg" xmlns:xlink="http://www.w3.org/1999/xlink" x="0px" y="0px"
	 viewBox="0 0 90 90" style="enable-background:new 0 0 90 90;" xml:space="preserve">
<style type="text/css">
	.st0{fill:#FFFFFF;}
</style>
<g>
	<path class="st0" d="M81.43,80.71V36h-3.92v-4.08h-9.78V36h-4.75v-9.97L36.74,7.67v16.09H16.83v7.82h4.24v7.03H9.98v42.09H2.14V82
		h35.09h25.76h24.97v-1.29H81.43z M11.27,80.71v-40.8h9.8v40.8h1.29V30.29h-4.24v-5.23h18.62l0.48,55.65H11.27z M38.51,80.71
		l-0.48-56.3V10.15L61.7,26.71v54H38.51z M62.99,37.3h6.04v-4.08h7.19v4.08h3.92v43.41H62.99V37.3z"/>
	<path class="st0" d="M30.48,33.23h-2.34c-0.84,0-1.52,0.68-1.52,1.52v9.52c0,0.84,0.68,1.52,1.52,1.52h2.34
		c0.84,0,1.52-0.68,1.52-1.52v-9.52C31.99,33.91,31.31,33.23,30.48,33.23z M30.7,44.26c0,0.12-0.1,0.22-0.22,0.22h-2.34
		c-0.12,0-0.22-0.1-0.22-0.22v-9.52c0-0.12,0.1-0.22,0.22-0.22h2.34c0.12,0,0.22,0.1,0.22,0.22V44.26z"/>
	<path class="st0" d="M30.48,49.59h-2.34c-0.84,0-1.52,0.68-1.52,1.52v9.52c0,0.84,0.68,1.52,1.52,1.52h2.34
		c0.84,0,1.52-0.68,1.52-1.52v-9.52C31.99,50.27,31.31,49.59,30.48,49.59z M30.7,60.62c0,0.12-0.1,0.22-0.22,0.22h-2.34
		c-0.12,0-0.22-0.1-0.22-0.22v-9.52c0-0.12,0.1-0.22,0.22-0.22h2.34c0.12,0,0.22,0.1,0.22,0.22V60.62z"/>
	<path class="st0" d="M30.48,65.52h-2.34c-0.84,0-1.52,0.68-1.52,1.52v9.52c0,0.84,0.68,1.52,1.52,1.52h2.34
		c0.84,0,1.52-0.68,1.52-1.52v-9.52C31.99,66.2,31.31,65.52,30.48,65.52z M30.7,76.55c0,0.12-0.1,0.22-0.22,0.22h-2.34
		c-0.12,0-0.22-0.1-0.22-0.22v-9.52c0-0.12,0.1-0.22,0.22-0.22h2.34c0.12,0,0.22,0.1,0.22,0.22V76.55z"/>
	<path class="st0" d="M56.87,27.52H43.79c-0.38,0-0.69,0.31-0.69,0.69v2.42c0,0.38,0.31,0.69,0.69,0.69h13.08
		c0.38,0,0.69-0.31,0.69-0.69v-2.42C57.55,27.83,57.25,27.52,56.87,27.52z M56.26,30.02H44.39v-1.21h11.87V30.02z"/>
	<path class="st0" d="M56.87,36.13H43.79c-0.38,0-0.69,0.31-0.69,0.69v2.42c0,0.38,0.31,0.69,0.69,0.69h13.08
		c0.38,0,0.69-0.31,0.69-0.69v-2.42C57.55,36.44,57.25,36.13,56.87,36.13z M56.26,38.63H44.39v-1.21h11.87V38.63z"/>
	<path class="st0" d="M56.87,44.74H43.79c-0.38,0-0.69,0.31-0.69,0.69v2.42c0,0.38,0.31,0.69,0.69,0.69h13.08
		c0.38,0,0.69-0.31,0.69-0.69v-2.42C57.55,45.05,57.25,44.74,56.87,44.74z M56.26,47.24H44.39v-1.21h11.87V47.24z"/>
	<path class="st0" d="M56.87,53.35H43.79c-0.38,0-0.69,0.31-0.69,0.69v2.42c0,0.38,0.31,0.69,0.69,0.69h13.08
		c0.38,0,0.69-0.31,0.69-0.69v-2.42C57.55,53.66,57.25,53.35,56.87,53.35z M56.26,55.85H44.39v-1.21h11.87V55.85z"/>
	<path class="st0" d="M56.87,61.96H43.79c-0.38,0-0.69,0.31-0.69,0.69v2.42c0,0.38,0.31,0.69,0.69,0.69h13.08
		c0.38,0,0.69-0.31,0.69-0.69v-2.42C57.55,62.27,57.25,61.96,56.87,61.96z M56.26,64.47H44.39v-1.21h11.87V64.47z"/>
	<path class="st0" d="M56.87,70.57H43.79c-0.38,0-0.69,0.31-0.69,0.69v2.42c0,0.38,0.31,0.69,0.69,0.69h13.08
		c0.38,0,0.69-0.31,0.69-0.69v-2.42C57.55,70.88,57.25,70.57,56.87,70.57z M56.26,73.08H44.39v-1.21h11.87V73.08z"/>
	<path class="st0" d="M72.52,50.24c2.73,0,4.94-2.22,4.94-4.94c0-2.73-2.22-4.94-4.94-4.94c-2.73,0-4.94,2.22-4.94,4.94
		C67.58,48.02,69.79,50.24,72.52,50.24z M72.52,41.65c2.01,0,3.65,1.64,3.65,3.65c0,2.01-1.64,3.65-3.65,3.65
		c-2.01,0-3.65-1.64-3.65-3.65C68.87,43.28,70.5,41.65,72.52,41.65z"/>
	<path class="st0" d="M72.52,53.27c-2.73,0-4.94,2.22-4.94,4.94s2.22,4.94,4.94,4.94c2.73,0,4.94-2.22,4.94-4.94
		S75.24,53.27,72.52,53.27z M72.52,61.86c-2.01,0-3.65-1.64-3.65-3.65s1.64-3.65,3.65-3.65c2.01,0,3.65,1.64,3.65,3.65
		S74.53,61.86,72.52,61.86z"/>
	<path class="st0" d="M72.52,66.19c-2.73,0-4.94,2.22-4.94,4.94c0,2.73,2.22,4.94,4.94,4.94c2.73,0,4.94-2.22,4.94-4.94
		C77.46,68.4,75.24,66.19,72.52,66.19z M72.52,74.78c-2.01,0-3.65-1.64-3.65-3.65s1.64-3.65,3.65-3.65c2.01,0,3.65,1.64,3.65,3.65
		S74.53,74.78,72.52,74.78z"/>
	<path class="st0" d="M13.83,41.22c-0.9,0-1.62,0.73-1.62,1.62v2.81c0,0.9,0.73,1.63,1.62,1.63c0.9,0,1.62-0.73,1.62-1.63v-2.81
		C15.46,41.95,14.73,41.22,13.83,41.22z M14.16,45.66c0,0.18-0.15,0.33-0.33,0.33c-0.18,0-0.33-0.15-0.33-0.33v-2.81
		c0-0.18,0.15-0.33,0.33-0.33c0.18,0,0.33,0.15,0.33,0.33V45.66z"/>
	<path class="st0" d="M18.14,41.22c-0.9,0-1.62,0.73-1.62,1.62v2.81c0,0.9,0.73,1.63,1.62,1.63c0.9,0,1.62-0.73,1.62-1.63v-2.81
		C19.76,41.95,19.03,41.22,18.14,41.22z M18.47,45.66c0,0.18-0.15,0.33-0.33,0.33s-0.33-0.15-0.33-0.33v-2.81
		c0-0.18,0.15-0.33,0.33-0.33s0.33,0.15,0.33,0.33V45.66z"/>
	<path class="st0" d="M13.83,52.13c-0.9,0-1.62,0.73-1.62,1.63v2.81c0,0.9,0.73,1.62,1.62,1.62c0.9,0,1.62-0.73,1.62-1.62v-2.81
		C15.46,52.86,14.73,52.13,13.83,52.13z M14.16,56.57c0,0.18-0.15,0.33-0.33,0.33c-0.18,0-0.33-0.15-0.33-0.33v-2.81
		c0-0.18,0.15-0.33,0.33-0.33c0.18,0,0.33,0.15,0.33,0.33V56.57z"/>
	<path class="st0" d="M18.14,52.13c-0.9,0-1.62,0.73-1.62,1.63v2.81c0,0.9,0.73,1.62,1.62,1.62c0.9,0,1.62-0.73,1.62-1.62v-2.81
		C19.76,52.86,19.03,52.13,18.14,52.13z M18.47,56.57c0,0.18-0.15,0.33-0.33,0.33s-0.33-0.15-0.33-0.33v-2.81
		c0-0.18,0.15-0.33,0.33-0.33s0.33,0.15,0.33,0.33V56.57z"/>
	<path class="st0" d="M13.83,63.04c-0.9,0-1.62,0.73-1.62,1.62v2.81c0,0.9,0.73,1.62,1.62,1.62c0.9,0,1.62-0.73,1.62-1.62v-2.81
		C15.46,63.77,14.73,63.04,13.83,63.04z M14.16,67.47c0,0.18-0.15,0.33-0.33,0.33c-0.18,0-0.33-0.15-0.33-0.33v-2.81
		c0-0.18,0.15-0.33,0.33-0.33c0.18,0,0.33,0.15,0.33,0.33V67.47z"/>
	<path class="st0" d="M18.14,63.04c-0.9,0-1.62,0.73-1.62,1.62v2.81c0,0.9,0.73,1.62,1.62,1.62c0.9,0,1.62-0.73,1.62-1.62v-2.81
		C19.76,63.77,19.03,63.04,18.14,63.04z M18.47,67.47c0,0.18-0.15,0.33-0.33,0.33s-0.33-0.15-0.33-0.33v-2.81
		c0-0.18,0.15-0.33,0.33-0.33s0.33,0.15,0.33,0.33V67.47z"/>
	<path class="st0" d="M13.83,73.95c-0.9,0-1.62,0.73-1.62,1.62v2.81c0,0.9,0.73,1.63,1.62,1.63c0.9,0,1.62-0.73,1.62-1.63v-2.81
		C15.46,74.68,14.73,73.95,13.83,73.95z M14.16,78.38c0,0.18-0.15,0.33-0.33,0.33c-0.18,0-0.33-0.15-0.33-0.33v-2.81
		c0-0.18,0.15-0.33,0.33-0.33c0.18,0,0.33,0.15,0.33,0.33V78.38z"/>
	<path class="st0" d="M18.14,73.95c-0.9,0-1.62,0.73-1.62,1.62v2.81c0,0.9,0.73,1.63,1.62,1.63c0.9,0,1.62-0.73,1.62-1.63v-2.81
		C19.76,74.68,19.03,73.95,18.14,73.95z M18.47,78.38c0,0.18-0.15,0.33-0.33,0.33s-0.33-0.15-0.33-0.33v-2.81
		c0-0.18,0.15-0.33,0.33-0.33s0.33,0.15,0.33,0.33V78.38z"/>
	<path class="st0" d="M71.35,28.53c0,0.71,0.57,1.28,1.28,1.28c0.71,0,1.28-0.57,1.28-1.28c0-0.71-0.57-1.28-1.28-1.28
		C71.92,27.24,71.35,27.82,71.35,28.53z"/>
	<path class="st0" d="M76.66,25.56c-1.01-1-2.35-1.55-3.77-1.55c-0.01,0-0.02,0-0.02,0c-1.43,0.01-2.77,0.57-3.78,1.58l1.22,1.21
		c0.68-0.69,1.59-1.07,2.56-1.07c0.01,0,0.01,0,0.02,0c0.96,0,1.87,0.37,2.55,1.05L76.66,25.56z"/>
	<path class="st0" d="M79.73,23.12c-3.8-3.77-9.96-3.74-13.73,0.06l1.22,1.21c3.1-3.13,8.17-3.15,11.3-0.05L79.73,23.12z"/>
	<path class="st0" d="M83.02,19.8c-2.71-2.69-6.31-4.17-10.13-4.17c-0.02,0-0.04,0-0.07,0c-3.84,0.02-7.45,1.53-10.15,4.26
		l1.22,1.21c2.38-2.4,5.56-3.73,8.94-3.75c3.38-0.02,6.57,1.29,8.97,3.67L83.02,19.8z"/>
	<path class="st0" d="M84.67,18.22L85.88,17c-7.22-7.15-18.91-7.1-26.06,0.12l1.22,1.21C67.53,11.78,78.12,11.74,84.67,18.22z"/>
</g>
</svg>
